<svg width="22" height="20" viewBox="0 0 22 20" fill="none" xmlns="http://www.w3.org/2000/svg">
<path fill-rule="evenodd" clip-rule="evenodd" d="M3.70824 13.44C4.87901 14.2624 6.27454 14.7044 7.70524 14.706C8.14611 15.9066 8.90745 16.9634 9.9066 17.7617C10.9057 18.5601 12.1045 19.0694 13.3727 19.2345C14.641 19.3995 15.9302 19.214 17.1004 18.698C18.2706 18.182 19.2771 17.3553 20.0106 16.3076C20.744 15.2599 21.1765 14.0313 21.2609 12.7552C21.3454 11.4791 21.0786 10.2042 20.4895 9.069C19.9005 7.9338 19.0117 6.98167 17.9197 6.31599C16.8277 5.65031 15.5742 5.29652 14.2952 5.29304C13.9164 4.26187 13.3002 3.33433 12.4965 2.58545C11.6927 1.83657 10.724 1.28738 9.66867 0.982282C8.61334 0.677188 7.501 0.624761 6.42165 0.829244C5.34229 1.03373 4.32621 1.48938 3.4556 2.15934C2.58498 2.8293 1.88427 3.69477 1.41014 4.68574C0.936006 5.67671 0.701767 6.76537 0.726365 7.86365C0.750962 8.96193 1.03371 10.039 1.55173 11.0077C2.06975 11.9765 2.80851 12.8097 3.70824 13.44ZM4.85524 11.8C5.57356 12.3047 6.41261 12.6104 7.28724 12.686C7.19701 11.1171 7.63962 9.56377 8.54324 8.27804C9.44262 6.98942 10.7511 6.04254 12.2562 5.59104C11.9319 4.8963 11.452 4.28547 10.8539 3.80578C10.2557 3.3261 9.55523 2.9904 8.80661 2.82466C8.05799 2.65891 7.28128 2.66756 6.53654 2.84993C5.7918 3.0323 5.09898 3.3835 4.51164 3.87639C3.92431 4.36927 3.4582 4.99063 3.14935 5.69243C2.8405 6.39422 2.69719 7.15764 2.7305 7.92366C2.76381 8.68968 2.97285 9.43778 3.34145 10.1101C3.71005 10.7824 4.22834 11.361 4.85624 11.801L4.85524 11.8ZM17.1452 8.19704C16.4268 7.69274 15.5878 7.38742 14.7132 7.31204C14.8035 8.88095 14.3609 10.4343 13.4572 11.72C12.5579 13.0087 11.2494 13.9555 9.74425 14.407C10.0686 15.1018 10.5485 15.7126 11.1466 16.1923C11.7448 16.672 12.4453 17.0077 13.1939 17.1734C13.9425 17.3392 14.7192 17.3305 15.4639 17.1482C16.2087 16.9658 16.9015 16.6146 17.4888 16.1217C18.0762 15.6288 18.5423 15.0075 18.8511 14.3057C19.16 13.6039 19.3033 12.8404 19.27 12.0744C19.2367 11.3084 19.0276 10.5603 18.659 9.88797C18.2904 9.21564 17.7721 8.63708 17.1442 8.19704H17.1452Z" fill="#585656"/>
</svg>
